<svg width="96" height="96" viewBox="0 0 96 96" fill="none" xmlns="http://www.w3.org/2000/svg">
<rect width="96" height="96" rx="20" fill="#2E2E2E"/>
<g clip-path="url(#clip0_68_188)">
<path d="M41.5081 21.8354V24.5876H34.4703V16.0627H41.5081V19.079H37.4866V21.8354H41.5081ZM48.7427 19.079H51.5542V16.0627H44.5157C44.5157 16.0627 44.5157 17.5767 44.5157 19.079C45.4573 20.0206 45.9483 20.4714 47.3102 21.8332C46.5141 21.8332 44.5157 21.8359 44.5157 21.8359V24.5876H51.5542V21.8354L48.7427 19.079ZM58.7183 19.079H61.5296V16.0627H54.4913C54.4913 16.0627 54.4913 17.5767 54.4913 19.079C55.4327 20.0206 55.9239 20.4714 57.2857 21.8332C56.4901 21.8332 54.4913 21.8359 54.4913 21.8359V24.5876H61.5297V21.8354L58.7183 19.079ZM70.7994 28.6391L66.5241 74.9499L47.9999 79.9374L29.4754 74.9499L25.2007 28.6391H70.7994ZM62.1847 38.0556H47.9832H33.5307L34.2218 43.648H47.9832H48.7562L47.9832 43.9697L34.7248 49.4919L35.1646 54.9581L47.9832 54.9997L54.8536 55.0216L54.4134 62.3105L47.9832 64.121V64.1152L47.9304 64.1297L41.7199 62.562L41.3431 58.0376H41.3226H35.5619H35.5417L36.2957 66.7721L47.9832 70.2282V70.222L48.0042 70.2282L59.6292 66.835L61.1376 49.492H47.9832H47.9507L47.9832 49.478L61.6189 43.6481L62.1847 38.0556Z" fill="white"/>
</g>
<defs>
<clipPath id="clip0_68_188">
<rect width="64" height="64" fill="white" transform="translate(16 16)"/>
</clipPath>
</defs>
</svg>
