<svg width="96" height="96" viewBox="0 0 96 96" fill="none" xmlns="http://www.w3.org/2000/svg">
<rect width="96" height="96" rx="20" fill="#2E2E2E"/>
<g clip-path="url(#clip0_68_195)">
<path d="M29.5838 16.0627H32.4628V18.9072H35.0964V16.0627H37.9757V24.6764H35.0967V21.7919H32.463V24.6764H29.584V16.0627H29.5838ZM41.7615 18.9192H39.2272V16.0627H47.1764V18.9192H44.6408V24.6764H41.7618V18.9192H41.7615ZM48.4379 16.0627H51.4404L53.2868 19.0894L55.1317 16.0627H58.1345V24.6764H55.2673V20.4071L53.2867 23.4696H53.2373L51.2553 20.4071V24.6764H48.4379V16.0627ZM59.5677 16.0627H62.4474V21.8294H66.4963V24.6764H59.5677V16.0627ZM25.3735 28.6159L29.4918 74.8075L47.9723 79.9375L66.504 74.8001L70.6267 28.6157L25.3735 28.6159ZM62.0363 39.5776L61.7784 42.4497L61.6652 43.7232H61.6465H48.0002H47.9804H39.9859L40.5037 49.5241H47.9804H48.0002H59.6227H61.1494L61.0112 51.0456L59.6799 65.9606L59.5947 66.9171L48.0002 70.1307V70.1317L47.9742 70.1391L36.3693 66.9174L35.5754 58.0222H38.1967H41.2625L41.6659 62.5405L47.9752 64.2445L47.9804 64.2429V64.2424L54.2993 62.5374L54.9564 55.1897H48.0002H47.9804H35.3224L33.93 39.5776L33.7944 38.058H47.9804H48.0002H62.1719L62.0363 39.5776Z" fill="white"/>
</g>
<defs>
<clipPath id="clip0_68_195">
<rect width="64" height="64" fill="white" transform="translate(16 16)"/>
</clipPath>
</defs>
</svg>
