<svg width="96" height="96" viewBox="0 0 96 96" fill="none" xmlns="http://www.w3.org/2000/svg">
<rect width="96" height="96" rx="20" fill="#2E2E2E"/>
<path d="M39.2438 65.48C39.2438 65.48 36.7838 66.976 40.9538 67.404C45.9738 68.044 48.6478 67.938 54.2038 66.87C55.3205 67.5538 56.5015 68.1265 57.7298 68.58C45.2298 73.924 29.4118 68.26 39.2438 65.48ZM37.6438 58.534C37.6438 58.534 34.9718 60.564 39.1398 60.994C44.5898 61.528 48.8638 61.634 56.2398 60.14C56.9572 60.8675 57.8355 61.4162 58.8038 61.742C43.7358 66.23 26.8518 62.168 37.6438 58.534ZM67.1378 70.714C67.1378 70.714 68.9538 72.21 65.1078 73.386C57.9478 75.526 35.0798 76.166 28.6678 73.386C26.4238 72.426 30.6978 71.036 32.0678 70.822C33.4578 70.502 34.2078 70.502 34.2078 70.502C31.7478 68.792 17.8578 74.028 27.1558 75.522C52.6958 79.69 73.7478 73.706 67.1218 70.714H67.1378ZM40.3998 51.266C40.3998 51.266 28.7518 54.046 36.2318 55.006C39.4378 55.434 45.7418 55.326 51.6198 54.9C56.4278 54.472 61.2398 53.62 61.2398 53.62C61.2398 53.62 59.5298 54.368 58.3538 55.116C46.4938 58.216 23.7298 56.826 30.2498 53.62C35.8058 50.948 40.4018 51.27 40.4018 51.27L40.3998 51.266ZM61.2398 62.914C73.2078 56.714 67.6518 50.734 63.8038 51.48C62.8438 51.694 62.4138 51.908 62.4138 51.908C62.4138 51.908 62.7338 51.268 63.4818 51.054C71.0698 48.382 77.0538 59.068 61.0218 63.234C61.0218 63.234 61.1278 63.128 61.2358 62.914H61.2398ZM41.5798 79.798C53.1198 80.546 70.7538 79.37 71.1798 73.918C71.1798 73.918 70.3258 76.058 61.6698 77.658C51.8378 79.474 39.6558 79.258 32.4958 78.086C32.4958 78.086 33.9918 79.368 41.5798 79.798Z" fill="white"/>
<path d="M53.9918 16.002C53.9918 16.002 60.6178 22.734 47.6878 32.886C37.3218 41.114 45.3378 45.816 47.6878 51.16C41.5958 45.71 37.2158 40.9 40.2078 36.414C44.5878 29.786 56.6638 26.6 53.9918 16.002ZM50.5918 46.672C53.6918 50.198 49.7378 53.404 49.7378 53.404C49.7378 53.404 57.6458 49.344 54.0118 44.32C50.6998 39.512 48.1318 37.16 62.0258 29.146C62.0258 29.146 40.1198 34.596 50.5918 46.672Z" fill="white"/>
</svg>
