<svg width="96" height="96" viewBox="0 0 96 96" fill="none" xmlns="http://www.w3.org/2000/svg">
<rect width="96" height="96" rx="20" fill="#2E2E2E"/>
<g clip-path="url(#clip0_68_165)">
<path fill-rule="evenodd" clip-rule="evenodd" d="M65.0496 74.9828C59.4656 74.9828 55.856 72.3207 54.096 68.8391L58.992 66.0031C60.2816 68.1087 61.9552 69.6547 64.9216 69.6547C67.4112 69.6547 69.0016 68.409 69.0016 66.6906C69.0016 64.105 65.552 63.0948 63.1168 62.0516C58.7776 60.2052 55.8976 57.8851 55.8976 52.9859C55.8976 48.4771 59.3344 45.0406 64.7072 45.0406C68.528 45.0406 71.28 46.3716 73.2544 49.85L68.5728 52.8578C67.5424 51.0114 66.4256 50.2813 64.7072 50.2813C62.944 50.2813 61.8272 51.3986 61.8272 52.8578C61.8272 54.6626 62.944 55.3926 65.5232 56.5094C70.928 58.8262 75.0176 60.6463 75.0176 66.6047C75.0176 72.0191 70.7648 74.9828 65.0496 74.9828ZM51.2 65.9172C51.2 72.1476 47.3632 75.4406 42.0352 75.4406C37.2224 75.4406 34.3392 73.6 32.9216 70.4H32.8736H32.8512H32.8384L37.7312 66.9797C38.6752 68.6533 39.5264 69.8406 41.5872 69.8406C43.5648 69.8406 44.8 68.8392 44.8 65.8344V44.8H51.2V65.9172ZM16 80H80V16H16V80Z" fill="white"/>
</g>
<defs>
<clipPath id="clip0_68_165">
<rect width="64" height="64" fill="white" transform="translate(16 16)"/>
</clipPath>
</defs>
</svg>
