<svg width="18" height="29" viewBox="0 0 18 29" fill="none" xmlns="http://www.w3.org/2000/svg">
<g id="Vector">
<path d="M13.5815 0H13.6968C14.3371 0.312604 14.6573 0.661277 14.6573 1.04602L13.6968 7.89925C13.6968 10.4001 14.4908 15.5821 16.0789 23.4453L18 27.954C18 28.2666 17.731 28.6153 17.1931 29H16.4631C15.9508 28.8557 15.1824 27.3769 14.1578 24.5634C13.4919 22.3031 12.8259 18.8163 12.1599 14.1032H11.9294C10.4437 18.2392 9.39353 20.3794 8.77879 20.5236L8.16404 20.6679C7.62613 20.6679 6.96016 19.682 6.16611 17.7102H5.89716C5.58978 23.6497 4.98784 26.6194 4.09134 26.6194H3.97607C3.15641 26.6194 2.70815 26.0182 2.63131 24.8159C3.27167 22.5075 3.59185 20.1028 3.59185 17.602L2.55447 8.04353V7.35821C2.55447 6.44444 2.90026 5.98756 3.59185 5.98756C4.59082 5.98756 5.47452 7.82712 6.24295 11.5062C7.36999 14.8487 8.06158 16.6522 8.31773 16.9167C8.90686 16.051 9.49599 14.512 10.0851 12.2998C10.5462 11.1696 10.9944 9.40216 11.4299 6.99751L11.2762 6.8893L11.4299 6.31219V6.09577C11.6604 2.03192 12.3776 0 13.5815 0Z" fill="white"/>
<path d="M6.87516 3.75821L7.78488 3.3495C8.64765 3.23813 9.23605 4.25445 9.55009 6.39845L11.9391 14.5006L12.1123 14.6238L16.2698 12.558C16.8534 12.4826 17.2317 12.8586 17.4045 13.6858C17.4953 14.3052 15.9938 15.2636 12.9002 16.561L12.7584 16.6521L12.7794 16.7951C12.8526 17.2953 14.0721 19.7958 16.4378 24.2964L16.4482 24.3679C16.5145 24.8205 16.1771 25.2524 15.4358 25.6637C14.6999 25.7587 14.0974 24.999 13.6282 23.3848C12.8701 22.269 11.8717 20.3954 10.6331 17.7639L10.4808 17.7836C7.25079 18.8559 5.66894 19.6184 5.73523 20.071C4.45251 24.0231 3.3417 26.0598 2.4028 26.181C1.86991 26.2498 1.5056 25.9691 1.30989 25.339C1.22615 24.7673 1.73461 23.5608 2.83527 21.7196L3.2611 20.3904L2.30951 20.5132L1.60724 20.7495C0.636936 20.6563 0.101189 20.2643 0 19.5734C0.258511 18.6905 0.755714 18.2015 1.49161 18.1065L2.49554 18.341C3.91658 18.1576 4.55557 17.5775 4.41251 16.6008C5.28795 13.5751 6.10884 9.29422 6.87516 3.75821ZM8.1703 10.2175L6.85619 16.8679C8.88117 16.2182 9.86749 15.7146 9.81515 15.3573C8.92159 11.9045 8.37331 10.1913 8.1703 10.2175Z" fill="white"/>
</g>
</svg>
