<svg width="96" height="96" viewBox="0 0 96 96" fill="none" xmlns="http://www.w3.org/2000/svg">
<rect width="96" height="96" rx="20" fill="#2E2E2E"/>
<path d="M42.1847 20.7273H46.4006V35.9318C46.4006 37.5985 46.0066 39.0644 45.2188 40.3295C44.4384 41.5947 43.34 42.5833 41.9233 43.2955C40.5066 44 38.8513 44.3523 36.9574 44.3523C35.0559 44.3523 33.3968 44 31.9801 43.2955C30.5634 42.5833 29.465 41.5947 28.6847 40.3295C27.9044 39.0644 27.5142 37.5985 27.5142 35.9318V20.7273H31.7301V35.5795C31.7301 36.5492 31.9422 37.4129 32.3665 38.1705C32.7983 38.928 33.4044 39.5227 34.1847 39.9545C34.965 40.3788 35.8892 40.5909 36.9574 40.5909C38.0256 40.5909 38.9498 40.3788 39.7301 39.9545C40.518 39.5227 41.1241 38.928 41.5483 38.1705C41.9725 37.4129 42.1847 36.5492 42.1847 35.5795V20.7273ZM54.5057 20.7273L59.6307 29.25H59.8125L64.9602 20.7273H69.767L62.5966 32.3636L69.8807 44H64.9943L59.8125 35.5341H59.6307L54.4489 44H49.5852L56.9375 32.3636L49.6761 20.7273H54.5057ZM48.8409 52.7273H53.0568V67.9318C53.0568 69.5985 52.6629 71.0644 51.875 72.3295C51.0947 73.5947 49.9962 74.5833 48.5795 75.2955C47.1629 76 45.5076 76.3523 43.6136 76.3523C41.7121 76.3523 40.053 76 38.6364 75.2955C37.2197 74.5833 36.1212 73.5947 35.3409 72.3295C34.5606 71.0644 34.1705 69.5985 34.1705 67.9318V52.7273H38.3864V67.5795C38.3864 68.5492 38.5985 69.4129 39.0227 70.1705C39.4545 70.928 40.0606 71.5227 40.8409 71.9545C41.6212 72.3788 42.5455 72.5909 43.6136 72.5909C44.6818 72.5909 45.6061 72.3788 46.3864 71.9545C47.1742 71.5227 47.7803 70.928 48.2045 70.1705C48.6288 69.4129 48.8409 68.5492 48.8409 67.5795V52.7273ZM61.8551 52.7273V76H57.6392V52.7273H61.8551Z" fill="white"/>
</svg>
